<svg width="57" height="18" viewBox="0 0 57 18" fill="none" xmlns="http://www.w3.org/2000/svg">
<g clip-path="url(#clip0)">
<path fill-rule="evenodd" clip-rule="evenodd" d="M38.9355 3.39883C38.9329 3.42106 38.7516 5.15542 38.9059 7.22542C39.0465 9.10642 39.4972 11.6661 40.8472 13.1739C41.6181 14.0342 42.6252 14.4704 43.8415 14.4704C44.3683 14.4704 44.8634 14.3831 45.3199 14.2094C44.5903 12.7085 44.0645 10.7508 43.7544 8.37848C43.4294 5.89024 43.4511 3.74453 43.4574 3.37712L38.9371 3.38665C38.9366 3.38983 38.9355 3.39406 38.9355 3.39883ZM46.8417 14.6478C47.0419 14.9506 47.2544 15.2185 47.4763 15.4477C48.1838 16.1788 49.0239 16.551 49.9734 16.5547H49.9877C50.9557 16.5547 51.7968 16.1751 52.4874 15.4271C53.4206 14.4169 54.6823 12.1585 55.0332 7.13806C55.2419 4.15748 54.8202 1.557 54.8102 1.42783H50.6112C50.6318 1.86565 50.7063 3.87848 50.4558 6.18883C49.9734 10.638 48.6736 12.8494 47.6681 13.9204C47.4108 14.1957 47.1339 14.4392 46.8417 14.6478ZM49.9676 17.6702C48.709 17.6654 47.601 17.1789 46.6768 16.2249C46.3926 15.9311 46.122 15.5854 45.8689 15.1915C45.2439 15.4541 44.5644 15.5864 43.8415 15.5864C42.2955 15.5864 41.0089 15.0252 40.0182 13.9188C38.4584 12.177 37.8729 9.36212 37.7202 7.30747C37.557 5.12259 37.7504 3.30142 37.7519 3.28342C37.8101 2.69895 38.2592 2.27065 38.8198 2.27065L43.497 2.26112C44.0904 2.26112 44.5723 2.74395 44.5723 3.33689L44.5718 3.35118C44.5702 3.41736 44.4296 9.76183 46.2927 13.6673C46.4898 13.5169 46.6784 13.3465 46.857 13.1564C49.9681 9.83965 49.5 1.49189 49.4947 1.40771L49.4942 1.39183L49.4936 1.37595C49.4936 1.08953 49.5993 0.82324 49.7911 0.62524C49.9871 0.423005 50.2524 0.311829 50.5393 0.311829H54.8287C55.4052 0.311829 55.8638 0.738534 55.9198 1.32565C55.9224 1.359 56.4403 4.06642 56.2199 7.21589C56.0139 10.1652 55.216 14.1162 53.3048 16.1847C52.395 17.1709 51.2785 17.6702 49.9877 17.6702H49.9676Z" fill="black"/>
<path fill-rule="evenodd" clip-rule="evenodd" d="M8.10906 8.58229C9.91982 8.58229 10.4466 7.57165 10.4466 6.74418C10.4466 6.10147 10.0583 4.97753 8.54498 4.97753H6.48165V8.58229H8.10906ZM16.5204 17.9296H11.7766L8.26969 11.0854H6.48165V15.2889H8.43032V17.9296H0.292725V15.2889H2.42527V4.97753H0.292725V2.33524H9.98851C13.0151 2.33524 14.6636 4.33376 14.6636 6.69812C14.6636 8.49071 13.7934 9.75282 11.9831 10.5798L14.5035 15.2889H16.5204V17.9296Z" fill="#E81919"/>
<path fill-rule="evenodd" clip-rule="evenodd" d="M18.4493 4.86349H16.6143V2.22119H24.317V4.86349H22.53L25.1201 12.6697H25.165L27.7784 4.86349H26.0591V2.22119H32.6163V4.86349H30.7812L26.2651 17.9299H23.1255L18.4493 4.86349Z" fill="#E81919"/>
</g>
<defs>
<clipPath id="clip0">
<rect width="56.7692" height="18" fill="white"/>
</clipPath>
</defs>
</svg>
