<?xml version="1.0" standalone="no"?>
<!DOCTYPE svg PUBLIC "-//W3C//DTD SVG 20010904//EN"
 "http://www.w3.org/TR/2001/REC-SVG-20010904/DTD/svg10.dtd">
<svg version="1.0" xmlns="http://www.w3.org/2000/svg"
 width="3412.000000pt" height="3412.000000pt" viewBox="0 0 3412.000000 3412.000000"
 preserveAspectRatio="xMidYMid meet">
<metadata>
Created by potrace 1.11, written by Peter Selinger 2001-2013
</metadata>
<g transform="translate(0.000000,3412.000000) scale(0.100000,-0.100000)"
fill="#000000" stroke="none">
<path d="M21775 28825 c-91 -14 -234 -52 -252 -67 -7 -6 -13 -8 -13 -5 0 14
-184 -80 -273 -140 -290 -196 -494 -515 -557 -873 -18 -103 -19 -273 -5 -605
24 -572 25 -1926 0 -2715 -4 -150 -16 -447 -20 -535 -2 -44 -7 -143 -10 -220
-9 -212 -20 -412 -30 -575 -2 -36 -7 -105 -10 -155 -3 -49 -7 -117 -10 -150
-3 -33 -7 -98 -10 -145 -8 -124 -15 -218 -20 -280 -2 -30 -7 -89 -10 -130 -3
-41 -8 -100 -10 -130 -6 -58 -11 -119 -20 -240 -4 -41 -8 -86 -10 -100 -2 -14
-7 -61 -10 -105 -3 -44 -8 -96 -10 -115 -3 -19 -7 -64 -10 -100 -3 -36 -8 -76
-10 -90 -2 -14 -7 -59 -10 -100 -4 -41 -9 -88 -11 -105 -2 -16 -6 -59 -9 -95
-4 -36 -8 -76 -10 -90 -2 -14 -6 -50 -10 -80 -3 -30 -8 -71 -10 -90 -3 -19 -7
-61 -11 -93 -3 -32 -7 -67 -9 -77 -2 -10 -6 -46 -10 -79 -3 -33 -8 -69 -10
-80 -2 -11 -6 -46 -10 -78 -3 -32 -8 -71 -10 -88 -7 -43 -13 -91 -35 -250 -11
-77 -22 -157 -25 -177 -6 -43 -12 -85 -25 -178 -12 -82 -20 -137 -26 -175 -3
-16 -7 -45 -10 -64 -2 -19 -6 -46 -9 -60 -2 -14 -20 -123 -40 -241 -20 -118
-43 -253 -51 -300 -8 -47 -17 -96 -19 -110 -3 -22 -12 -70 -30 -165 -3 -16
-10 -52 -15 -80 -5 -27 -14 -75 -20 -105 -6 -30 -13 -68 -16 -84 -7 -41 -86
-426 -100 -491 -4 -16 -8 -39 -10 -50 -5 -29 -67 -303 -114 -500 -22 -93 -43
-181 -45 -195 -3 -14 -17 -68 -31 -120 -14 -52 -27 -104 -29 -115 -11 -59
-151 -567 -207 -750 -17 -55 -31 -104 -32 -110 -1 -5 -7 -26 -13 -45 -6 -19
-35 -109 -63 -200 -123 -391 -276 -824 -410 -1159 -109 -276 -147 -366 -216
-519 -13 -29 -24 -55 -24 -58 0 -3 -17 -42 -39 -87 -21 -45 -56 -118 -76 -162
-94 -201 -259 -525 -365 -715 -109 -197 -232 -404 -242 -408 -4 -2 -8 -8 -8
-12 0 -5 -26 -49 -57 -97 -32 -48 -60 -92 -63 -98 -7 -15 -103 -159 -110 -165
-3 -3 -23 -32 -45 -65 -22 -33 -51 -76 -66 -95 -14 -19 -66 -89 -115 -154 -78
-107 -232 -303 -259 -332 -5 -6 -28 -32 -50 -58 -22 -27 -49 -58 -60 -71 -11
-12 -54 -60 -95 -106 -74 -83 -426 -436 -471 -473 -24 -19 -160 -137 -169
-146 -3 -3 -27 -23 -55 -45 -27 -22 -57 -45 -65 -52 -27 -21 -164 -128 -201
-156 l-37 -28 -20 43 c-11 24 -42 90 -70 148 -73 155 -110 234 -153 335 -22
50 -44 99 -49 110 -23 50 -131 313 -179 435 -29 74 -57 144 -62 155 -19 43
-171 458 -219 600 -28 83 -54 157 -57 165 -4 8 -7 17 -8 20 0 3 -13 43 -29 90
-100 308 -173 541 -177 562 0 4 -7 29 -15 55 -29 94 -115 388 -119 407 -3 10
-11 42 -19 70 -24 83 -107 399 -112 426 -3 14 -9 39 -15 56 -8 26 -53 206 -64
254 -2 8 -13 56 -25 105 -44 183 -102 433 -121 525 -11 52 -22 102 -24 110 -7
31 -40 190 -52 250 -9 45 -7 36 -21 100 -14 64 -58 289 -67 340 -3 19 -8 42
-10 50 -2 8 -7 29 -10 45 -2 17 -7 41 -10 55 -3 14 -8 41 -11 60 -3 19 -14 78
-24 130 -10 52 -21 113 -24 135 -4 22 -13 74 -21 115 -8 41 -17 89 -19 105 -3
24 -28 177 -50 305 -3 14 -7 41 -10 60 -3 19 -7 44 -10 55 -2 11 -7 43 -10 70
-9 60 -14 93 -26 165 -5 30 -12 73 -15 95 -3 22 -10 67 -15 100 -5 33 -12 80
-15 105 -3 25 -12 88 -20 140 -8 52 -17 118 -20 145 -7 52 -11 78 -19 130 -3
17 -7 50 -10 75 -7 59 -24 186 -30 230 -3 19 -12 94 -21 165 -8 72 -17 141
-19 155 -3 14 -7 56 -11 93 -3 37 -8 76 -10 85 -1 9 -6 46 -10 82 -3 36 -8 76
-10 90 -2 14 -7 54 -10 90 -3 36 -7 76 -10 90 -3 14 -7 54 -10 90 -3 36 -7 79
-9 95 -2 17 -7 64 -10 105 -4 41 -9 86 -11 100 -2 14 -7 57 -10 95 -3 39 -8
84 -10 100 -2 17 -6 64 -10 105 -4 41 -8 91 -10 110 -2 19 -6 76 -10 125 -4
50 -9 97 -10 106 -2 9 -6 57 -10 105 -4 49 -8 105 -10 124 -3 32 -8 96 -20
255 -2 33 -7 92 -10 130 -8 101 -14 189 -20 280 -3 44 -7 107 -10 140 -2 33
-7 98 -10 145 -2 47 -7 123 -10 170 -5 86 -12 210 -20 375 -2 50 -7 131 -10
180 -2 50 -7 149 -10 220 -3 72 -7 176 -10 232 -27 657 -37 1143 -40 1933 -1
327 -5 615 -9 640 -10 64 -54 224 -77 284 -149 381 -458 675 -844 804 -50 16
-108 33 -129 36 -21 4 -41 8 -45 10 -3 2 -33 8 -66 12 -95 14 -6726 3 -6805
-10 -368 -65 -632 -213 -855 -482 -52 -63 -160 -230 -174 -268 -2 -6 -12 -30
-22 -53 -59 -132 -102 -291 -118 -438 -13 -117 -26 -267 -36 -400 -3 -44 -8
-102 -10 -130 -10 -117 -19 -240 -30 -435 -3 -47 -7 -125 -10 -175 -12 -190
-19 -342 -30 -595 -27 -671 -27 -2034 0 -2615 2 -44 7 -143 10 -220 6 -148 12
-256 20 -395 12 -201 16 -269 20 -330 13 -177 16 -220 21 -285 2 -38 7 -90 9
-115 2 -25 7 -79 10 -120 3 -41 7 -93 10 -115 2 -22 7 -67 10 -100 3 -33 8
-79 11 -102 2 -24 6 -64 9 -90 10 -101 17 -159 20 -183 2 -14 6 -50 10 -80 3
-30 8 -71 10 -90 3 -19 7 -53 9 -75 16 -125 29 -226 52 -380 9 -60 18 -126 20
-145 3 -19 6 -45 9 -57 2 -12 9 -57 15 -100 6 -43 13 -87 15 -98 2 -11 6 -33
9 -50 3 -16 12 -73 21 -125 8 -52 17 -105 19 -116 3 -12 7 -39 10 -60 3 -22 8
-50 11 -64 2 -14 6 -36 9 -50 10 -63 77 -409 86 -445 5 -22 21 -96 35 -165 14
-69 35 -165 46 -215 11 -49 22 -101 25 -115 3 -14 10 -43 16 -65 5 -22 12 -51
14 -65 3 -14 7 -33 10 -42 3 -9 6 -25 8 -35 2 -10 11 -45 19 -78 9 -33 18 -71
21 -85 3 -14 12 -52 21 -85 9 -33 18 -67 20 -76 5 -24 64 -248 80 -304 8 -27
33 -115 56 -195 63 -223 63 -222 132 -445 36 -115 84 -262 107 -325 22 -63 42
-122 44 -130 3 -8 23 -67 46 -130 23 -63 45 -126 49 -140 5 -14 20 -54 34 -90
14 -36 43 -112 65 -170 60 -156 159 -397 188 -460 15 -30 34 -75 44 -100 10
-25 35 -81 55 -125 21 -44 51 -109 67 -145 162 -352 475 -932 643 -1190 12
-19 66 -102 120 -185 88 -136 280 -413 295 -425 3 -3 17 -21 30 -40 14 -19 30
-42 37 -50 7 -8 44 -55 83 -105 39 -49 77 -98 85 -107 8 -9 35 -43 61 -75 26
-32 77 -92 114 -133 37 -41 82 -93 101 -115 18 -22 128 -135 244 -250 181
-182 238 -235 361 -342 12 -10 49 -43 84 -73 35 -30 72 -62 84 -70 12 -8 26
-19 32 -25 6 -6 47 -37 90 -70 43 -33 81 -62 84 -65 36 -39 428 -300 610 -407
539 -317 1138 -559 1750 -707 148 -35 369 -82 437 -91 21 -3 47 -8 59 -10 12
-3 39 -7 60 -10 21 -3 62 -10 89 -15 28 -5 75 -12 105 -15 30 -4 66 -8 80 -10
36 -6 134 -16 300 -30 371 -33 930 -37 1260 -9 163 14 210 18 300 29 19 3 58
7 85 10 50 6 353 53 390 62 11 2 31 6 45 9 102 19 144 28 210 44 41 11 87 21
101 24 41 7 252 64 364 97 262 79 693 235 719 260 22 21 51 8 76 -32 35 -58
42 -68 75 -118 17 -24 35 -51 40 -60 62 -95 167 -244 283 -401 100 -135 225
-294 242 -310 3 -3 17 -21 32 -40 15 -19 39 -48 53 -65 15 -16 43 -50 63 -74
21 -24 51 -59 67 -76 17 -18 55 -61 85 -96 72 -85 445 -458 539 -539 40 -36
79 -69 85 -75 162 -144 523 -424 607 -471 10 -6 27 -18 37 -27 10 -10 23 -17
28 -17 5 0 25 -14 44 -30 19 -16 39 -30 43 -30 4 0 34 -17 65 -38 140 -95 475
-277 697 -379 183 -85 484 -199 715 -272 97 -30 469 -126 525 -134 17 -3 64
-12 105 -20 41 -9 98 -19 125 -23 28 -4 57 -8 65 -10 27 -5 96 -15 141 -20 24
-3 55 -7 69 -9 14 -3 59 -7 100 -11 41 -3 86 -8 100 -10 162 -26 895 -25 1135
0 17 2 59 6 95 10 36 3 74 8 85 10 11 2 45 6 75 10 108 13 125 16 246 36 137
23 140 24 209 40 28 6 61 14 75 16 14 3 33 7 42 10 10 3 30 8 45 10 36 7 175
44 183 49 4 2 21 7 38 10 37 6 388 122 482 158 310 121 610 267 885 430 268
159 635 422 845 606 14 12 52 46 85 74 263 226 627 608 870 912 22 28 42 52
45 55 9 9 185 239 223 291 282 389 570 843 760 1199 16 30 39 73 52 95 69 122
196 371 314 618 66 138 211 455 211 462 0 2 11 28 24 57 165 361 424 1044 614
1623 36 110 66 202 67 205 2 9 66 214 75 240 8 22 144 488 155 530 2 8 22 81
44 162 89 323 200 764 271 1073 10 44 28 121 39 170 33 143 108 496 115 539 4
21 8 42 11 46 3 4 7 23 9 41 3 19 12 68 21 109 9 41 18 84 19 95 2 11 6 34 9
50 4 17 9 46 12 65 3 19 8 42 10 50 5 18 16 76 20 107 2 11 5 29 9 40 3 10 8
38 11 63 3 25 8 52 10 60 2 8 7 31 10 50 3 19 8 42 10 50 2 8 7 35 10 60 3 25
8 52 10 60 2 8 7 35 10 60 3 25 10 61 15 80 4 19 11 55 14 80 3 25 8 56 10 70
7 37 26 150 32 190 2 19 7 46 10 60 3 14 7 39 9 55 3 27 19 131 30 195 11 63
95 660 99 705 3 28 8 59 10 70 2 11 7 49 10 85 4 36 8 75 10 86 2 12 7 45 11
75 3 30 8 65 10 79 2 14 6 52 10 85 3 33 7 74 10 90 5 30 9 71 20 180 4 33 8
71 10 84 3 13 7 61 11 105 3 45 8 89 10 99 2 10 6 48 9 85 3 37 8 83 10 102 2
19 7 67 11 105 3 39 8 88 10 110 2 22 6 72 9 110 3 39 7 93 10 120 2 28 7 79
10 115 3 36 7 92 10 125 3 33 7 101 10 150 3 50 8 113 10 140 2 28 7 104 10
170 4 66 9 143 10 170 2 28 7 118 10 200 4 83 8 182 10 220 27 572 27 1992 0
2600 -1 39 -6 140 -9 225 -7 153 -11 238 -21 415 -3 50 -8 126 -10 170 -6 106
-14 235 -30 460 -7 90 -24 316 -30 380 -2 22 -7 76 -10 120 -3 44 -8 94 -10
110 -2 17 -7 66 -11 110 -3 44 -7 91 -9 105 -1 14 -6 59 -9 100 -4 41 -9 86
-11 100 -2 14 -6 57 -9 95 -4 39 -8 86 -11 105 -6 43 -14 118 -20 185 -3 28
-7 66 -10 85 -8 59 -14 112 -20 170 -3 30 -8 71 -10 90 -48 378 -50 395 -59
458 -3 20 -8 53 -10 72 -8 63 -18 135 -22 154 -2 10 -6 44 -10 75 -3 31 -8 58
-9 61 -2 3 -6 33 -10 65 -3 33 -8 67 -10 75 -3 8 -16 89 -30 180 -23 143 -34
212 -59 365 -3 17 -10 66 -16 110 -28 196 -106 403 -214 570 -65 100 -87 127
-186 225 -139 139 -235 204 -430 293 -55 25 -184 65 -247 77 -32 5 -69 13 -83
17 -14 4 -1424 8 -3135 9 -2466 2 -3127 -1 -3190 -11z m6196 -1294 c1 -9 3
-32 4 -51 2 -31 13 -120 20 -160 1 -8 6 -40 10 -70 3 -30 8 -66 10 -80 3 -14
7 -47 10 -75 3 -27 8 -61 10 -75 7 -44 31 -234 39 -310 3 -25 7 -61 10 -80 5
-34 25 -204 31 -265 3 -27 8 -78 20 -181 2 -17 7 -62 10 -99 4 -38 8 -77 10
-87 2 -9 7 -57 10 -105 4 -48 9 -95 10 -103 2 -8 6 -49 9 -90 4 -41 9 -95 12
-120 6 -61 14 -144 19 -210 10 -129 15 -198 20 -245 3 -27 7 -81 10 -120 3
-38 7 -92 10 -120 7 -78 19 -253 30 -440 3 -49 8 -124 10 -165 8 -111 13 -200
20 -340 10 -192 13 -251 20 -445 4 -99 8 -211 10 -250 25 -509 25 -2029 0
-2551 -2 -43 -6 -151 -10 -239 -11 -271 -13 -313 -19 -398 -4 -45 -8 -127 -11
-182 -3 -55 -7 -127 -10 -160 -3 -33 -7 -98 -10 -145 -3 -47 -8 -107 -10 -135
-2 -27 -7 -90 -10 -140 -4 -49 -8 -103 -10 -120 -2 -16 -7 -74 -10 -128 -4
-54 -8 -106 -10 -115 -1 -10 -6 -61 -10 -114 -3 -53 -8 -107 -10 -120 -2 -13
-6 -63 -10 -113 -4 -49 -8 -92 -10 -95 -1 -3 -6 -47 -9 -97 -4 -51 -9 -103
-11 -115 -2 -13 -6 -54 -10 -93 -3 -38 -13 -128 -21 -200 -8 -71 -16 -152 -19
-180 -3 -27 -8 -66 -10 -85 -2 -19 -7 -60 -10 -90 -3 -30 -8 -66 -10 -80 -2
-14 -7 -54 -11 -90 -3 -36 -8 -74 -10 -85 -2 -11 -7 -45 -10 -75 -3 -30 -7
-66 -9 -80 -4 -26 -8 -54 -25 -190 -6 -47 -13 -96 -15 -110 -2 -14 -6 -45 -10
-70 -10 -81 -17 -129 -34 -240 -6 -36 -13 -83 -16 -105 -2 -22 -7 -51 -9 -65
-3 -14 -10 -61 -16 -105 -7 -44 -13 -87 -15 -95 -2 -8 -8 -50 -15 -93 -12 -81
-13 -89 -30 -185 -9 -54 -13 -77 -25 -154 -3 -18 -10 -58 -16 -88 -6 -30 -12
-71 -15 -90 -2 -19 -7 -42 -9 -50 -3 -8 -7 -33 -11 -55 -16 -107 -116 -615
-181 -915 -19 -91 -36 -172 -38 -180 -10 -50 -91 -394 -116 -495 -16 -65 -32
-131 -34 -145 -3 -14 -10 -41 -15 -60 -6 -19 -22 -80 -36 -135 -14 -55 -33
-129 -44 -165 -10 -36 -21 -76 -24 -90 -3 -14 -26 -97 -51 -185 -25 -88 -52
-182 -60 -210 -59 -216 -261 -833 -369 -1130 -299 -822 -695 -1679 -1028
-2223 -21 -34 -38 -67 -38 -72 0 -6 -4 -10 -9 -10 -5 0 -11 -8 -15 -17 -3 -10
-11 -27 -18 -38 -7 -11 -31 -49 -54 -85 -64 -101 -228 -349 -268 -405 -20 -27
-41 -58 -48 -69 -12 -17 -125 -170 -171 -230 -12 -16 -26 -34 -32 -40 -5 -6
-23 -29 -39 -51 -17 -22 -32 -42 -36 -45 -3 -3 -25 -30 -50 -60 -25 -30 -47
-57 -50 -60 -3 -3 -28 -32 -55 -64 -28 -33 -70 -83 -95 -110 -70 -79 -408
-415 -480 -477 -94 -82 -239 -200 -301 -244 -30 -22 -56 -42 -59 -45 -3 -3
-34 -26 -70 -51 -36 -24 -67 -46 -70 -49 -3 -3 -14 -11 -25 -17 -366 -225
-390 -239 -600 -339 -327 -155 -747 -293 -1065 -349 -136 -24 -263 -44 -310
-50 -30 -3 -66 -8 -80 -10 -25 -4 -168 -15 -270 -21 -72 -4 -450 -4 -516 0
-112 7 -249 18 -268 21 -12 2 -48 6 -81 10 -33 3 -89 11 -125 16 -36 6 -78 13
-95 16 -317 49 -749 176 -1052 309 -18 8 -50 21 -70 30 -51 22 -319 156 -363
181 -230 132 -583 367 -658 440 -8 8 -30 26 -50 41 -99 74 -295 249 -446 397
-112 111 -316 332 -392 425 -16 19 -31 37 -34 40 -3 3 -54 66 -113 140 -60 74
-114 142 -120 150 -48 59 -237 328 -324 460 l-52 80 62 42 c57 38 337 249 363
273 7 5 31 26 55 45 229 184 647 582 840 799 41 46 79 89 84 95 176 191 487
596 710 925 119 176 385 595 385 607 0 2 12 23 27 47 61 97 283 509 402 747
144 288 270 562 393 855 99 234 100 237 103 250 2 6 11 30 22 55 111 250 364
969 522 1480 141 461 374 1324 415 1540 6 35 44 198 56 240 5 19 12 51 15 70
3 19 10 51 15 70 9 35 104 489 113 545 3 17 22 113 42 215 20 102 38 196 40
210 3 22 38 217 49 276 3 12 7 39 10 60 4 22 18 104 31 184 13 80 27 163 30
185 3 22 10 65 15 95 5 30 12 73 15 95 3 22 10 65 15 95 11 67 17 110 25 175
3 28 10 75 15 105 9 55 13 83 25 175 4 28 9 64 12 80 2 17 6 46 9 65 19 170
24 214 29 230 2 8 7 44 10 80 4 36 9 73 11 83 2 10 6 46 9 80 3 34 8 76 10 92
2 17 7 59 10 95 4 36 8 72 10 80 2 8 7 44 10 80 4 36 8 76 10 90 2 14 7 66 10
115 4 50 9 92 10 95 2 3 6 43 10 90 4 47 9 96 10 110 1 14 6 61 9 105 4 44 9
96 11 115 5 43 13 134 20 220 3 36 7 92 10 125 3 33 7 85 10 115 2 30 6 84 9
120 3 36 9 101 12 145 3 44 7 105 9 135 2 30 7 98 10 150 4 52 8 118 10 145 4
49 10 154 20 330 3 50 7 122 10 160 2 39 7 138 11 220 3 83 7 179 9 215 4 64
14 340 20 495 27 800 27 2185 0 2945 -2 58 -7 182 -10 276 l-6 170 3006 0
c2711 0 3005 -1 3006 -15z m-15621 -2666 c-3 -59 11 -1717 14 -1825 3 -80 8
-224 11 -320 7 -242 14 -426 20 -550 2 -58 7 -161 10 -230 2 -69 7 -161 10
-205 3 -44 7 -125 10 -180 3 -55 7 -131 10 -170 12 -200 16 -265 20 -320 2
-33 7 -109 10 -170 4 -60 8 -126 10 -145 2 -19 6 -73 10 -120 3 -47 8 -110 10
-140 2 -30 7 -93 10 -140 3 -47 8 -101 10 -120 4 -33 10 -101 20 -230 2 -30 7
-80 10 -110 3 -30 8 -81 10 -112 3 -32 7 -84 10 -115 3 -32 8 -76 10 -98 15
-165 22 -229 30 -305 3 -30 8 -75 10 -100 3 -25 7 -67 11 -95 6 -61 11 -110
19 -195 3 -36 8 -76 10 -90 2 -14 7 -52 10 -85 3 -33 8 -73 10 -90 2 -16 7
-52 10 -80 3 -27 8 -63 10 -80 2 -16 7 -57 10 -90 4 -33 15 -130 26 -215 11
-85 21 -173 24 -195 3 -22 7 -50 9 -62 3 -12 7 -48 11 -80 3 -32 8 -65 10 -73
2 -8 7 -42 11 -75 3 -33 7 -67 9 -75 1 -8 5 -42 10 -75 4 -33 9 -67 10 -75 3
-19 15 -97 20 -130 2 -14 11 -74 20 -135 9 -60 18 -121 20 -135 2 -14 11 -70
20 -125 8 -55 17 -111 19 -125 6 -31 33 -204 40 -245 2 -16 11 -73 21 -125 9
-52 18 -108 21 -125 2 -16 9 -52 14 -80 5 -27 12 -66 15 -85 17 -99 81 -442
121 -645 26 -126 48 -240 50 -251 4 -21 65 -306 104 -484 10 -47 32 -143 49
-215 16 -71 41 -179 55 -240 27 -117 96 -395 166 -660 87 -336 272 -970 359
-1235 16 -47 38 -116 51 -155 43 -134 161 -476 195 -565 7 -19 32 -87 55 -150
23 -63 53 -144 67 -180 114 -295 165 -423 194 -486 10 -22 28 -65 39 -95 12
-29 32 -77 46 -107 13 -29 35 -79 49 -112 49 -116 211 -467 279 -605 l45 -90
-50 -22 c-104 -47 -573 -196 -689 -219 -14 -3 -50 -11 -80 -19 -77 -20 -352
-74 -408 -80 -26 -3 -54 -8 -62 -10 -8 -2 -38 -7 -66 -10 -28 -3 -60 -7 -71
-10 -12 -2 -54 -6 -95 -10 -40 -3 -84 -8 -98 -10 -147 -26 -1020 -26 -1157 -1
-10 2 -54 7 -98 10 -44 4 -91 9 -105 11 -14 2 -61 9 -105 15 -221 31 -189 26
-365 60 -322 64 -781 201 -1015 305 -16 7 -71 32 -122 54 -138 60 -359 172
-483 244 -102 59 -265 162 -268 169 -2 4 -10 8 -18 8 -8 0 -14 4 -14 8 0 4
-15 16 -32 27 -27 15 -166 113 -203 142 -6 4 -28 21 -50 37 -22 17 -42 32 -45
35 -3 4 -41 35 -85 71 -44 35 -82 67 -85 70 -3 3 -43 39 -90 80 -232 203 -522
515 -735 790 -36 47 -71 92 -78 100 -24 29 -185 256 -244 345 -80 120 -216
338 -265 425 -14 25 -43 77 -65 115 -120 211 -285 538 -388 770 -37 83 -73
164 -80 180 -123 270 -371 954 -483 1330 -17 55 -44 145 -60 200 -39 127 -132
472 -172 635 -30 123 -57 238 -106 455 -25 109 -142 687 -149 735 -2 14 -16
93 -30 175 -15 83 -29 164 -31 180 -3 17 -12 68 -19 115 -8 47 -17 103 -20
125 -6 44 -24 166 -31 205 -2 14 -13 95 -25 180 -27 202 -28 207 -34 260 -3
25 -8 62 -11 83 -3 21 -7 53 -9 70 -5 54 -16 150 -20 187 -6 50 -13 116 -20
185 -3 33 -8 71 -10 85 -2 14 -6 61 -10 105 -3 44 -8 94 -10 110 -2 17 -7 62
-10 100 -3 39 -8 93 -10 120 -9 96 -14 161 -20 245 -3 47 -8 110 -11 140 -7
90 -15 209 -29 465 -10 183 -13 244 -20 400 -4 83 -8 179 -10 215 -26 460 -26
1790 0 2465 7 180 24 544 30 625 2 30 6 100 10 155 10 170 20 305 30 430 2 28
7 91 10 140 3 50 8 106 10 125 2 19 7 64 10 100 3 36 11 93 17 128 l12 62 265
1 c146 0 1323 3 2616 5 1292 3 2350 6 2351 7 1 1 273 2 603 2 394 0 601 -3
601 -10z"/>
</g>
</svg>
